Coordinates
version=1
nRows=19
nColumns=34
inDegrees=yes

Units are S.I. units (second, meters, Newtons, ...)
If the header above contains a line with 'inDegrees', this indicates whether rotational values are in degrees (yes) or radians (no).

endheader
time	pelvis_tilt	pelvis_list	pelvis_rotation	pelvis_tx	pelvis_ty	pelvis_tz	hip_flexion_r	hip_adduction_r	hip_rotation_r	knee_angle_r	ankle_angle_r	subtalar_angle_r	mtp_angle_r	hip_flexion_l	hip_adduction_l	hip_rotation_l	knee_angle_l	ankle_angle_l	subtalar_angle_l	mtp_angle_l	lumbar_extension	lumbar_bending	lumbar_rotation	arm_flex_r	arm_add_r	arm_rot_r	elbow_flex_r	pro_sup_r	arm_flex_l	arm_add_l	arm_rot_l	elbow_flex_l	pro_sup_l
      3.25000000	    -10.80441028	     -8.05186357	      8.23920465	     -0.01774270	      0.86917475	     -0.16225687	     63.55828251	     -8.97066337	      1.28328910	     23.04435406	    -12.00781343	    -11.59828292	      0.00000000	     50.56256051	      3.54388522	      4.66025860	     64.16860818	     14.52419620	    -21.83481020	      0.00000000	    -21.82494121	     -1.26074698	      2.85820005	    100.46063569	      4.17329377	     73.86335830	    117.99191278	     91.41496448	     94.21377093	     -4.00985577	     76.03519080	    114.84652250	     79.16841077
      3.26666670	    -10.89891363	     -8.40021538	      8.09577269	     -0.02421394	      0.85911770	     -0.16222626	     64.96807556	     -8.91622653	      1.64255274	     23.99419100	    -11.97473423	    -11.71495296	      0.00000000	     52.01379963	      3.52490914	      4.86693952	     66.38259388	     15.97308314	    -22.67468374	      0.00000000	    -22.67378577	     -1.38119052	      3.12630407	    101.94600444	      4.06797526	     73.71875958	    117.95606380	     91.31965206	     95.52569532	     -3.98843121	     75.85452218	    114.56311397	     79.14815572
      3.28333330	    -11.31134038	     -8.67963287	      8.04957979	     -0.02391222	      0.84957243	     -0.16085641	     66.78242525	     -8.96890897	      2.25936520	     25.03260181	    -11.66240005	    -12.36352637	      0.00000000	     53.85190530	      3.61923804	      5.25138249	     68.53282235	     16.99960316	    -23.49046239	      0.00000000	    -23.25993699	     -1.61109955	      3.55745588	    103.80465368	      3.75554185	     74.37039532	    118.49445488	     91.14376485	     96.70245877	     -3.53215687	     76.65749296	    115.09601050	     79.18705068
      3.30000000	    -11.97470675	     -8.85978402	      7.94135462	     -0.02425094	      0.83881190	     -0.16106947	     68.85121003	     -9.03379638	      2.42263016	     26.00771733	    -11.73824598	    -12.89733819	      0.00000000	     55.52845786	      4.07400376	      5.52173286	     70.50592488	     18.29548594	    -24.60303915	      0.00000000	    -23.55589286	     -1.74091539	      3.98618535	    105.32455908	      3.53595235	     75.17850446	    119.20323499	     90.90649745	     97.72652624	     -3.77216370	     77.61191496	    116.00143243	     79.29658436
      3.31666670	    -12.14910711	     -8.94012060	      7.62214648	     -0.02823773	      0.82869671	     -0.16326174	     70.39704551	     -9.12324304	      2.11703144	     26.65248686	    -12.13545595	    -13.16771500	      0.00000000	     56.60439063	      4.70235538	      5.64804283	     72.68586345	     18.76708219	    -25.38468299	      0.00000000	    -24.21269084	     -1.74433523	      4.01936251	    106.34915228	      3.59403721	     75.27443585	    119.31183747	     90.80267824	     98.68713210	     -4.34615412	     77.68614366	    115.34273873	     79.30625921
      3.33333330	    -12.52872686	     -9.20024977	      7.29315201	     -0.02798446	      0.81668457	     -0.16295760	     72.17145694	     -8.95238921	      2.11152585	     27.55552120	    -11.90520961	    -13.75306348	      0.00000000	     57.77115389	      5.24012679	      5.83988167	     74.85018762	     19.51664826	    -26.76031759	      0.00000000	    -24.66590916	     -1.69785563	      4.23204505	    107.43389481	      3.67093912	     75.45233123	    119.60159504	     90.71047413	     99.76445517	     -4.73322634	     77.83978093	    114.88475899	     79.31735932
      3.35000000	    -13.58180127	     -9.46352877	      6.74923352	     -0.02560981	      0.80601931	     -0.16234813	     74.52577076	     -8.59472613	      2.31348934	     28.40895757	    -12.44483990	    -15.35143875	      0.00000000	     59.48231274	      5.90472253	      6.31749540	     76.94430457	     17.99068848	    -29.32826792	      0.00000000	    -24.04065559	     -1.88912608	      4.60162631	    107.89608139	      3.32031415	     76.16404614	    120.67416189	     90.00772537	    100.32110717	     -4.85429661	     79.22879831	    115.02360738	     79.37662241
      3.36666670	    -14.36369959	     -9.68389848	      6.50197952	     -0.02514287	      0.79389973	     -0.16149815	     76.59287220	     -8.30963943	      2.29442507	     29.08832481	    -12.58700952	    -16.45567836	      0.00000000	     60.97174930	      6.73199405	      7.03535372	     78.68002338	     18.51184995	    -29.80730941	      0.00000000	    -23.86383491	     -1.72442911	      5.06343724	    108.70196411	      3.05801869	     76.39506833	    121.31834803	     89.69790967	    101.13736689	     -5.17404910	     79.34113078	    115.53620021	     79.41158542
      3.38333330	    -15.09415033	    -10.10290493	      6.23579040	     -0.02511751	      0.78297126	     -0.16169232	     78.35048236	     -7.81861146	      2.49169032	     29.43918107	    -12.28587276	    -17.20616901	      0.00000000	     62.84645988	      7.33659894	      7.97177354	     80.65149243	     18.93824597	    -30.81377972	      0.00000000	    -23.55950639	     -1.44664636	      5.92948132	    109.45108149	      2.90864463	     76.53722457	    121.65189092	     89.37868466	    101.79346265	     -5.50453957	     79.78194912	    116.52699447	     79.51654997
      3.40000000	    -15.69727724	    -10.39614871	      6.08371815	     -0.02677234	      0.77356713	     -0.16096012	     79.85206087	     -7.33064325	      2.55114688	     29.47665083	    -12.08236273	    -17.47379386	      0.00000000	     64.61522545	      7.87491793	      8.56332201	     82.48327848	     20.24143287	    -31.56806279	      0.00000000	    -23.42934224	     -1.29564102	      6.11211444	    109.76468974	      2.81446179	     76.65658091	    122.30392675	     89.10533170	    102.48204668	     -5.99298608	     81.36519998	    117.48863954	     79.66912451
      3.41666670	    -16.21881190	    -10.66115835	      5.86786609	     -0.02599390	      0.76380661	     -0.16236071	     81.11055378	     -6.89565786	      2.39612827	     29.17112900	    -11.70053524	    -17.37253182	      0.00000000	     66.10078095	      8.44246538	      9.35056629	     84.00679687	     20.94723592	    -32.29246414	      0.00000000	    -23.35733428	     -1.09474014	      6.76111020	    110.14311070	      2.58817204	     76.74356995	    122.71449664	     88.81714070	    103.45275433	     -6.22059471	     82.72643512	    118.07586174	     79.81913435
      3.43333330	    -16.66904502	    -10.85964630	      5.72100580	     -0.03170226	      0.75482137	     -0.16171112	     82.63363448	     -6.48184043	      2.37905354	     29.57887068	    -11.66761769	    -17.10302928	      0.00000000	     67.62988719	      9.03504770	      9.72171661	     85.33370641	     21.41452410	    -32.69970886	      0.00000000	    -23.77301507	     -0.92723924	      7.14285535	    111.23227926	      2.29456753	     77.01181254	    123.28664487	     88.39467297	    105.20958597	     -6.41043226	     84.44852402	    118.18188731	     79.94916878
      3.45000000	    -16.94487043	    -11.14997456	      5.60079037	     -0.03235492	      0.74557689	     -0.16177129	     83.99141144	     -6.08658533	      2.19079731	     30.06859611	    -11.20831814	    -16.42612138	      0.00000000	     69.17860704	      9.28072874	     10.10337205	     86.91476535	     21.67927232	    -33.37649474	      0.00000000	    -24.27549925	     -0.71797507	      7.42067024	    111.85123292	      2.08956697	     77.17971190	    123.75109405	     87.90595041	    106.97022228	     -6.41516537	     86.06512662	    118.09126948	     79.98983095
      3.46666670	    -17.42436982	    -11.35522602	      5.40946515	     -0.03025727	      0.73719492	     -0.16288079	     85.56651819	     -5.76656534	      2.03995648	     30.96340515	    -10.79489817	    -16.13743495	      0.00000000	     70.66867188	      9.59181942	     10.28468756	     88.64111776	     21.95588728	    -34.25429782	      0.00000000	    -24.53724357	     -0.52389605	      7.55152842	    112.08719734	      2.07289025	     77.42734836	    124.29613510	     87.42803029	    108.33722174	     -6.78037861	     87.37152279	    118.16612775	     79.94812856
      3.48333330	    -17.71043479	    -11.55632967	      5.35374601	     -0.03068169	      0.72855296	     -0.16424768	     86.89930720	     -5.66808656	      1.78004778	     31.63248755	    -10.67594431	    -15.89410125	      0.00000000	     72.09593590	      9.85859257	     10.32930554	     90.39666782	     22.11305696	    -34.84606723	      0.00000000	    -24.84042313	     -0.35069104	      7.78576547	    112.13298476	      1.53534839	     77.57921162	    124.73129372	     86.86289878	    109.54239877	     -6.83483409	     88.33942448	    117.79617836	     79.77951994
      3.50000000	    -17.90699954	    -11.67185925	      5.47418983	     -0.03066228	      0.72012971	     -0.16470549	     88.07942379	     -5.67032205	      1.70079668	     32.18390562	    -10.41720028	    -15.97732853	      0.00000000	     73.34606223	     10.08620914	     10.21067471	     91.88292270	     22.88804150	    -35.00000000	      0.00000000	    -25.32987575	     -0.21663233	      7.93899910	    112.56017873	      1.07312571	     77.70981434	    125.14597130	     86.03854201	    110.93326728	     -6.72258572	     88.94123867	    117.33055886	     79.40037299
      3.51666670	    -18.17863843	    -11.75889005	      5.81694962	     -0.02979389	      0.71343049	     -0.16785497	     88.78835485	     -5.93635840	      1.48867140	     31.86701098	     -9.95982133	    -15.35631143	      0.00000000	     74.35180935	     10.58345128	     10.07847849	     92.88200260	     23.82054995	    -35.00000000	      0.00000000	    -25.71293941	      0.18535537	      7.80987755	    112.76683777	      0.87179908	     77.66009414	    124.86878780	     85.82506143	    111.83095421	     -6.93665380	     88.87221889	    116.90206833	     79.27087652
      3.53333330	    -18.63536518	    -11.68264307	      5.92740786	     -0.03264063	      0.70587437	     -0.16970579	     89.80130983	     -6.28581879	      1.11375672	     31.74817983	     -8.58421109	    -13.53711225	      0.00000000	     76.02280464	     11.11309510	      9.77864330	     93.95991615	     24.57204320	    -34.65005199	      0.00000000	    -26.00526154	      0.47252568	      7.73219971	    113.14173595	      0.77886397	     77.77368832	    124.76795744	     85.25017187	    112.89881150	     -6.96405060	     89.21734843	    116.75357721	     78.91268714
      3.55000000	    -18.67385626	    -11.52646682	      6.26062906	     -0.03394519	      0.69685614	     -0.17060187	     90.66933781	     -6.76840348	      0.98655786	     32.08291813	     -7.60038915	    -12.96526406	      0.00000000	     77.18807672	     11.60317592	      9.32711586	     95.28521475	     25.31759424	    -34.12365552	      0.00000000	    -26.68617813	      0.76146309	      7.80243836	    114.02779784	      0.50804155	     77.95086622	    124.13954773	     84.33091236	    114.03160367	     -6.65980917	     89.32898156	    115.90054126	     78.29237375
